<svg id="Gradient" height="512" viewBox="0 0 512 512" width="512" xmlns="http://www.w3.org/2000/svg" xmlns:xlink="http://www.w3.org/1999/xlink"><linearGradient id="linear-gradient" gradientUnits="userSpaceOnUse" x1="256" x2="256" y1="439.646" y2="72"><stop offset="0" stop-color="#12c2e9"/><stop offset=".5" stop-color="#c471ed"/><stop offset="1" stop-color="#f64f59"/></linearGradient><path d="m256 211.347c-11.246-12.473-35.007-35.7-56-35.7-14.287 0-49.841 19.525-106.7 51.682-27.861 15.756-62.511 35.354-69.491 36.32a8 8 0 0 0 -5.791 13.313c.707.795 17.656 19.6 48.142 31.165 3.253 1.234 6.748 2.405 10.456 3.472 19.422 20.506 44.154 51.634 60.725 76.486 33.987 50.976 115.218 51.561 118.659 51.561a208.677 208.677 0 0 0 45.94-6.238c33.365-8.342 58.51-24.014 72.716-45.324 16.57-24.85 41.3-55.975 60.719-76.48 3.713-1.067 7.2-2.242 10.462-3.478 30.486-11.564 47.435-30.37 48.142-31.165a8 8 0 0 0 -5.791-13.313c-6.98-.966-41.63-20.564-69.491-36.32-56.856-32.157-92.41-51.682-106.7-51.682-20.99 0-44.751 23.228-55.997 35.701zm105.344 167.862c-29.21 43.815-104.592 44.437-105.338 44.437s-76.14-.622-105.35-44.438a668.961 668.961 0 0 0 -48.175-62.839 150.264 150.264 0 0 0 56.332-6.2c39.5 17.24 85.243 46.445 89.267 74.605a8 8 0 0 0 15.84 0c4.018-28.114 49.985-57.446 89.254-74.6a154.144 154.144 0 0 0 44.32 6.716c4.151 0 8.155-.191 12.024-.525a668.666 668.666 0 0 0 -48.174 62.844zm-181.356-76.816q6.252-2.73 12.715-6.091c17.457 10.142 39.762 15.698 63.297 15.698s45.825-5.552 63.279-15.687q6.464 3.351 12.72 6.072c-13.316 6.565-29.726 15.692-44.668 26.919-14.265 10.718-24.731 21.521-31.331 32.296-16.033-26.2-51.643-47.187-76.012-59.207zm292.687-27.621a123.167 123.167 0 0 1 -32.512 18.395c-33.1 12.556-68.656 10.1-105.827-7.271a72.184 72.184 0 0 0 8.44-10.2 47.363 47.363 0 0 0 9.224-27.696c0-.044-.006-.086-.007-.13 0-.075.007-.148.007-.224h-.018a7.989 7.989 0 0 0 -15.964 0h-.018q0 .9-.058 1.788v.009a34.519 34.519 0 0 1 -5.822 16.387 55.223 55.223 0 0 1 -16.189 15.019c-15.355 9.77-35.931 15.151-57.931 15.151s-42.576-5.381-57.931-15.151a55.223 55.223 0 0 1 -16.189-15.019 34.508 34.508 0 0 1 -5.822-16.387v-.009q-.057-.887-.058-1.788h-.018a7.989 7.989 0 0 0 -15.964 0h-.018c0 .076.006.149.007.224 0 .044-.007.086-.007.13a47.363 47.363 0 0 0 9.224 27.692 72.062 72.062 0 0 0 8.441 10.2c-36.9 17.239-72.221 19.786-105.137 7.53a123.458 123.458 0 0 1 -33.175-18.667c12.1-5.557 31.2-16.18 61.827-33.505 34.928-19.754 87.714-49.608 98.82-49.608 14.644 0 38.29 22.7 49.753 37a8 8 0 0 0 6.244 3 8 8 0 0 0 6.244-3c11.465-14.306 35.111-37 49.755-37 11.106 0 63.892 29.854 98.82 49.608 30.661 17.343 49.757 27.968 61.859 33.522zm-64.675-82.772a7.978 7.978 0 0 0 5.516-2.206l54.632-52a37.449 37.449 0 0 0 0-54.665 41.167 41.167 0 0 0 -56.292 0l-3.856 3.664-3.855-3.668a41.167 41.167 0 0 0 -56.294 0 37.449 37.449 0 0 0 0 54.667l54.631 52a7.981 7.981 0 0 0 5.518 2.208zm-56-81.541a21.629 21.629 0 0 1 6.883-15.746 25.173 25.173 0 0 1 34.229 0l9.37 8.919a8 8 0 0 0 11.032 0l9.369-8.919a25.173 25.173 0 0 1 34.229 0 21.453 21.453 0 0 1 0 31.493l-49.112 46.749-49.112-46.747a21.628 21.628 0 0 1 -6.883-15.749z" fill="url(#linear-gradient)"/></svg>